<?xml version='1.0' encoding='UTF-8'?>
<svg xmlns:xlink="http://www.w3.org/1999/xlink" xmlns="http://www.w3.org/2000/svg" version="1.1" baseProfile="full" width="180" height="180">
  <title>VFPt_plus_thumb</title>
  <desc>VFPt_plus_thumb
created with VectorFieldPlot 1.1
http://commons.wikimedia.org/wiki/User:Geek3/VectorFieldPlot

about: http://commons.wikimedia.org/wiki/File:VFPt_plus_thumb.svg
rights: GNU Free Documentation license,
        Creative Commons Attribution ShareAlike license
  </desc>
  <defs>
    <radialGradient id="white_spot" cx="0.65" cy="0.7" r="0.75">
      <stop stop-color="#ffffff" offset="0" stop-opacity="0.7"/>
      <stop stop-color="#ffffff" offset="0.1" stop-opacity="0.5"/>
      <stop stop-color="#ffffff" offset="0.6" stop-opacity="0"/>
      <stop stop-color="#000000" offset="0.6" stop-opacity="0"/>
      <stop stop-color="#000000" offset="0.75" stop-opacity="0.05"/>
      <stop stop-color="#000000" offset="0.85" stop-opacity="0.15"/>
      <stop stop-color="#000000" offset="1" stop-opacity="0.5"/>
    </radialGradient>
    <path id="arrow1" stroke="none" fill="#000000" transform="scale(0.0333333333333)" d="M 0.3,0 L -2.2,2.25 L 3.8,0 L -2.2,-2.25 L 0.3,0 Z"/>
  </defs>
  <rect id="background" x="0" y="0" width="180" height="180" fill="#ffffff"/>
  <g id="image" transform="translate(90.0,90.0) scale(30.0,-30.0)">
    <g id="fieldlines" fill="none" stroke="#000000" stroke-width="0.0333333333333" stroke-linejoin="round" stroke-linecap="round">
      <g id="fieldline1">
        <path d="M 0.0000,0.0000 L 3.0167,0.6001"/>
        <g id="arrows1">
          <use xlink:href="#arrow1" transform="translate(1.9616,0.3902) rotate(11.25) scale(2.0)"/>
        </g>
      </g>
      <g id="fieldline2">
        <path d="M 0.0000,0.0000 L 3.0167,2.0157"/>
        <g id="arrows2">
          <use xlink:href="#arrow1" transform="translate(1.6629,1.1111) rotate(33.75) scale(2.0)"/>
        </g>
      </g>
      <g id="fieldline3">
        <path d="M 0.0000,0.0000 L 2.0157,3.0167"/>
        <g id="arrows3">
          <use xlink:href="#arrow1" transform="translate(1.1111,1.6629) rotate(56.25) scale(2.0)"/>
        </g>
      </g>
      <g id="fieldline4">
        <path d="M 0.0000,0.0000 L 0.6001,3.0167"/>
        <g id="arrows4">
          <use xlink:href="#arrow1" transform="translate(0.3902,1.9616) rotate(78.75) scale(2.0)"/>
        </g>
      </g>
      <g id="fieldline5">
        <path d="M 0.0000,0.0000 L -0.6001,3.0167"/>
        <g id="arrows5">
          <use xlink:href="#arrow1" transform="translate(-0.3902,1.9616) rotate(101.25) scale(2.0)"/>
        </g>
      </g>
      <g id="fieldline6">
        <path d="M 0.0000,0.0000 L -2.0157,3.0167"/>
        <g id="arrows6">
          <use xlink:href="#arrow1" transform="translate(-1.1111,1.6629) rotate(123.75) scale(2.0)"/>
        </g>
      </g>
      <g id="fieldline7">
        <path d="M 0.0000,0.0000 L -3.0167,2.0157"/>
        <g id="arrows7">
          <use xlink:href="#arrow1" transform="translate(-1.6629,1.1111) rotate(146.25) scale(2.0)"/>
        </g>
      </g>
      <g id="fieldline8">
        <path d="M 0.0000,0.0000 L -3.0167,0.6001"/>
        <g id="arrows8">
          <use xlink:href="#arrow1" transform="translate(-1.9616,0.3902) rotate(168.75) scale(2.0)"/>
        </g>
      </g>
      <g id="fieldline9">
        <path d="M 0.0000,0.0000 L -3.0167,-0.6001"/>
        <g id="arrows9">
          <use xlink:href="#arrow1" transform="translate(-1.9616,-0.3902) rotate(-168.75) scale(2.0)"/>
        </g>
      </g>
      <g id="fieldline10">
        <path d="M 0.0000,0.0000 L -3.0167,-2.0157"/>
        <g id="arrows10">
          <use xlink:href="#arrow1" transform="translate(-1.6629,-1.1111) rotate(-146.25) scale(2.0)"/>
        </g>
      </g>
      <g id="fieldline11">
        <path d="M 0.0000,0.0000 L -2.0157,-3.0167"/>
        <g id="arrows11">
          <use xlink:href="#arrow1" transform="translate(-1.1111,-1.6629) rotate(-123.75) scale(2.0)"/>
        </g>
      </g>
      <g id="fieldline12">
        <path d="M 0.0000,0.0000 L -0.6001,-3.0167"/>
        <g id="arrows12">
          <use xlink:href="#arrow1" transform="translate(-0.3902,-1.9616) rotate(-101.25) scale(2.0)"/>
        </g>
      </g>
      <g id="fieldline13">
        <path d="M 0.0000,0.0000 L 0.6001,-3.0167"/>
        <g id="arrows13">
          <use xlink:href="#arrow1" transform="translate(0.3902,-1.9616) rotate(-78.75) scale(2.0)"/>
        </g>
      </g>
      <g id="fieldline14">
        <path d="M 0.0000,0.0000 L 2.0157,-3.0167"/>
        <g id="arrows14">
          <use xlink:href="#arrow1" transform="translate(1.1111,-1.6629) rotate(-56.25) scale(2.0)"/>
        </g>
      </g>
      <g id="fieldline15">
        <path d="M 0.0000,0.0000 L 3.0167,-2.0157"/>
        <g id="arrows15">
          <use xlink:href="#arrow1" transform="translate(1.6629,-1.1111) rotate(-33.75) scale(2.0)"/>
        </g>
      </g>
      <g id="fieldline16">
        <path d="M 0.0000,0.0000 L 3.0167,-0.6001"/>
        <g id="arrows16">
          <use xlink:href="#arrow1" transform="translate(1.9616,-0.3902) rotate(-11.25) scale(2.0)"/>
        </g>
      </g>
    </g>
    <g id="symbols">
      <g id="charge1" transform="translate(0.0,0.0) scale(0.0333333333333,0.0333333333333)">
        <circle style="fill:#ff0000; stroke:none" cx="0" cy="0" r="14"/>
        <circle cx="0" cy="0" r="14" style="fill:url(#white_spot); stroke:#000000; stroke-width:2"/>
        <path d="M 2,2 V 8 H -2 V 2 H -8 V -2 H -2 V -8 H 2 V -2 H 8 V 2 H 2 Z" style="fill:#000000; stroke:none"/>
      </g>
    </g>
  </g>
</svg>
